<?xml version="1.0" encoding="UTF-8" standalone="no"?>
<svg
   x="0%"
   y="0%"
   viewBox="0 0 15.61 15.55"
   xml:space="preserve"
   version="1.1"
   id="svg18"
   sodipodi:docname="LinkingRelationEditor-icon.svg"
   width="15.61"
   height="15.55"
   inkscape:version="1.3.2 (1:1.3.2+202311252150+091e20ef0f)"
   xmlns:inkscape="http://www.inkscape.org/namespaces/inkscape"
   xmlns:sodipodi="http://sodipodi.sourceforge.net/DTD/sodipodi-0.dtd"
   xmlns="http://www.w3.org/2000/svg"
   xmlns:svg="http://www.w3.org/2000/svg"><sodipodi:namedview
   id="namedview18"
   pagecolor="#ffffff"
   bordercolor="#000000"
   borderopacity="0.25"
   inkscape:showpageshadow="2"
   inkscape:pageopacity="0.0"
   inkscape:pagecheckerboard="0"
   inkscape:deskcolor="#d1d1d1"
   inkscape:zoom="50.125"
   inkscape:cx="7.5810474"
   inkscape:cy="7.6708229"
   inkscape:window-width="3440"
   inkscape:window-height="1403"
   inkscape:window-x="0"
   inkscape:window-y="0"
   inkscape:window-maximized="1"
   inkscape:current-layer="svg18" />
  <defs
   id="defs2">
    <linearGradient
   id="a"
   x1="4.2143915"
   y1="12.552681"
   x2="19.971507"
   y2="12.118312"
   gradientTransform="matrix(1.0019274,0,0,0.9980763,-4.4,-4.32)"
   gradientUnits="userSpaceOnUse">
      <stop
   offset="0%"
   style="stop-color:#73a44d;stop-opacity:1"
   id="stop1" />
      <stop
   offset="100%"
   style="stop-color:#1b4761;stop-opacity:1"
   id="stop2" />
    </linearGradient>
  </defs>
  <path
   fill="url(#a)"
   stroke="#ffffff"
   stroke-width="0.48"
   stroke-linecap="square"
   d="m 7.8,0.23999999 c 4.18,0 7.57,3.37000001 7.57,7.54000001 0,4.16 -3.39,7.53 -7.57,7.53 C 3.62,15.31 0.23999999,11.94 0.23999999,7.78 0.23999999,3.61 3.62,0.23999999 7.8,0.23999999 Z"
   id="path2"
   style="fill:url(#a)" />
  <path
   fill="none"
   stroke="#fdfdfd"
   stroke-width="0.48"
   stroke-linecap="square"
   d="M 7.9,0.28999999 7.88,15.29"
   id="path3" />
  <path
   fill="none"
   stroke="#ffffff"
   stroke-width="0.48"
   stroke-linecap="square"
   d="M 0.23999999,7.86 H 15.25"
   id="path4" />
  <path
   fill="none"
   stroke="#000000"
   stroke-width="0.24"
   stroke-linecap="square"
   d="m 7.84,0.24999999 c 4.17,0 7.56,3.37000001 7.56,7.54000001 0,4.16 -3.39,7.53 -7.56,7.53 C 3.66,15.32 0.26999999,11.95 0.26999999,7.79 0.26999999,3.62 3.66,0.24999999 7.84,0.24999999 Z"
   id="path5" />
  <path
   fill="#339400"
   stroke="#000000"
   stroke-width="0.24"
   stroke-linecap="round"
   d="m 8.69,1.85 h 2.63 m -2.63,1 3.36,-0.01"
   id="path6" />
  <path
   fill="none"
   stroke="#030303"
   stroke-width="0.24"
   stroke-linecap="square"
   d="M 0.27999999,7.86 15.3,7.85"
   id="path7" />
  <path
   fill="#339400"
   stroke="#000000"
   stroke-width="0.24"
   stroke-linecap="round"
   d="M 8.7,3.83 12.06,3.81 M 8.76,4.94 14.2,5.06"
   id="path8" />
  <path
   fill="none"
   stroke="#000000"
   stroke-width="0.24"
   stroke-linecap="square"
   d="M 7.9,0.28999999 7.88,15.29"
   id="path9" />
  <path
   fill="#339400"
   stroke="#000000"
   stroke-width="0.24"
   stroke-linecap="round"
   d="M 8.84,6.99 14.73,6.97 M 8.54,6.03 14.42,6.02"
   id="path10" />
  <path
   fill="#7f7f7f"
   stroke="#ffffff"
   stroke-width="0.768"
   stroke-linecap="square"
   d="M 1.52,11.44 6.08,7.36 A 0.73,0.73 0 0 1 7.11,7.41 L 8.42,8.88 A 0.73,0.73 0 0 1 8.36,9.9 L 3.81,13.99 A 0.73,0.73 0 0 1 2.78,13.93 L 1.46,12.47 a 0.73,0.73 0 0 1 0.06,-1.03 z"
   id="path11" />
  <path
   d="m 7.748,5.885 4.55,-4.08 a 0.73,0.73 0 0 1 1.03,0.06 l 1.31,1.46 a 0.73,0.73 0 0 1 -0.05,1.03 l -4.56,4.08 a 0.73,0.73 0 0 1 -1.03,-0.05 l -1.31,-1.47 a 0.73,0.73 0 0 1 0.06,-1.03 z"
   style="fill:#bcbcbc;fill-opacity:1;fill-rule:nonzero;stroke:#ffffff;stroke-width:0.768;stroke-linecap:square;stroke-linejoin:miter;stroke-opacity:1"
   id="path12" />
  <path
   fill="none"
   stroke="#000000"
   stroke-width="0.384"
   stroke-linecap="square"
   d="M 1.52,11.44 6.08,7.36 A 0.73,0.73 0 0 1 7.11,7.41 L 8.42,8.88 A 0.73,0.73 0 0 1 8.36,9.9 L 3.81,13.99 A 0.73,0.73 0 0 1 2.78,13.93 L 1.46,12.47 a 0.73,0.73 0 0 1 0.06,-1.03 z"
   id="path13" />
  <path
   d="m 7.748,5.885 4.55,-4.08 a 0.73,0.73 0 0 1 1.03,0.06 l 1.31,1.46 a 0.73,0.73 0 0 1 -0.05,1.03 l -4.56,4.08 a 0.73,0.73 0 0 1 -1.03,-0.05 l -1.31,-1.47 a 0.73,0.73 0 0 1 0.06,-1.03 z"
   style="fill:#aeaeae;fill-opacity:0;fill-rule:nonzero;stroke:#000000;stroke-width:0.384;stroke-linecap:square;stroke-linejoin:miter;stroke-opacity:1"
   fill="none"
   id="path14" />
  <path
   d="m 6.892,8.904 2.32,-2.1"
   style="fill:#000000;fill-opacity:0;fill-rule:nonzero;stroke:#ffffff;stroke-width:0.768;stroke-linecap:round;stroke-linejoin:miter;stroke-opacity:1"
   fill="none"
   id="path15" />
  <path
   d="m 6.892,8.904 2.32,-2.1"
   style="fill:#000000;fill-opacity:0;fill-rule:nonzero;stroke:#000000;stroke-width:0.384;stroke-linecap:round;stroke-linejoin:miter;stroke-opacity:1"
   fill="none"
   id="path16" />
  <path
   fill="#73a44d"
   stroke="#000000"
   stroke-width="0.24"
   stroke-linecap="round"
   d="m 5.95,1.97 c 0.42,0 0.76,0.35 0.76,0.77 0,0.42 -0.34,0.77 -0.76,0.77 A 0.76,0.76 0 0 1 5.2,2.74 C 5.2,2.32 5.53,1.97 5.95,1.97 Z m -0.8,2.84 c 0.34,0 0.62,0.28 0.62,0.63 0,0.35 -0.28,0.63 -0.62,0.63 C 4.81,6.07 4.53,5.79 4.53,5.44 4.53,5.09 4.81,4.81 5.15,4.81 Z M 2.76,4.5 c 0.28,0 0.51,0.21 0.51,0.47 0,0.26 -0.23,0.47 -0.51,0.47 -0.28,0 -0.5,-0.21 -0.5,-0.47 0,-0.26 0.22,-0.47 0.5,-0.47 z"
   id="path17" />
  <path
   fill="#1b4761"
   stroke="#000000"
   stroke-width="0.24"
   stroke-linecap="round"
   d="m 9.32,10.09 1.91,-0.96 1.85,0.92 v 1.2 l -0.77,0.76 -1.22,-0.16 -0.08,1.41 -1.7,-0.47 -0.4,-0.47 -0.34,-0.7 0.84,-0.37 z"
   id="path18" />
</svg>
