<?xml version="1.0" encoding="UTF-8" standalone="no"?>
<svg
   height="24"
   width="24"
   version="1.1"
   id="svg26"
   sodipodi:docname="mActionUnlink.svg"
   inkscape:version="1.1.1 (3bf5ae0d25, 2021-09-20)"
   xmlns:inkscape="http://www.inkscape.org/namespaces/inkscape"
   xmlns:sodipodi="http://sodipodi.sourceforge.net/DTD/sodipodi-0.dtd"
   xmlns="http://www.w3.org/2000/svg"
   xmlns:svg="http://www.w3.org/2000/svg">
  <defs
     id="defs30" />
  <sodipodi:namedview
     id="namedview28"
     pagecolor="#ffffff"
     bordercolor="#666666"
     borderopacity="1.0"
     inkscape:pageshadow="2"
     inkscape:pageopacity="0.0"
     inkscape:pagecheckerboard="0"
     showgrid="false"
     inkscape:zoom="26.25"
     inkscape:cx="11.980952"
     inkscape:cy="12"
     inkscape:window-width="2560"
     inkscape:window-height="1367"
     inkscape:window-x="1280"
     inkscape:window-y="0"
     inkscape:window-maximized="1"
     inkscape:current-layer="svg26" />
  <g
     fill="none"
     stroke-linecap="round"
     transform="translate(0 -1028.3622)"
     id="g24">
    <rect
       height="4.098267"
       rx="2.642857"
       ry="2.049125"
       stroke="#c4a000"
       stroke-linejoin="round"
       width="9.455358"
       x=".919644"
       y="1038.1122"
       id="rect2" />
    <rect
       height="4.098267"
       rx="2.642857"
       ry="2.049125"
       stroke="#c4a000"
       stroke-linejoin="round"
       width="9.455358"
       x="12.919643"
       y="1038.1122"
       id="rect4" />
    <g
       stroke="#820521"
       id="g22">
      <path
         d="m11.72724 1041.8503v1.973"
         id="path6" />
      <path
         d="m8.8560596 1037.3242 1.3951174 1.3952"
         id="path8" />
      <path
         d="m14.551073 1037.2136-1.395122 1.3952"
         id="path10" />
      <path
         d="m10.235393 1041.6178-1.395117 1.3952"
         id="path12" />
      <path
         d="m13.029679 1041.602 1.395122 1.3952"
         id="path14" />
      <path
         d="m15.3451 1040.1482h-1.973"
         id="path16" />
      <path
         d="m11.72724 1036.5771v1.973"
         id="path18" />
      <path
         d="m9.8659588 1040.1482h-1.973"
         id="path20" />
    </g>
  </g>
  <g
     id="g834">
    <g
       transform="translate(33)"
       id="g16">
      <rect
         fill="#c4a000"
         height="11"
         rx="2.0114901"
         width="11"
         x="-20"
         y="13"
         id="rect8" />
      <g
         fill="#fcffff"
         id="g14">
        <path
           d="m -15,14 v 2.0625 c -0.537663,0.111041 -1.024662,0.383291 -1.375,0.78125 l -1.78125,-1.03125 -0.5,0.875 1.78125,1.03125 C -16.957063,17.966182 -17,18.225145 -17,18.5 c 0,0.274855 0.04294,0.533818 0.125,0.78125 l -1.78125,1.03125 0.5,0.875 1.78125,-1.03125 c 0.352503,0.40042 0.832682,0.670182 1.375,0.78125 V 23 h 1 v -2.0625 c 0.537663,-0.111041 1.024662,-0.383291 1.375,-0.78125 l 1.78125,1.03125 0.5,-0.875 -1.78125,-1.03125 C -12.042937,19.033818 -12,18.774855 -12,18.5 c 0,-0.274855 -0.04294,-0.533818 -0.125,-0.78125 l 1.78125,-1.03125 -0.5,-0.875 -1.78125,1.03125 C -12.977503,16.44333 -13.457682,16.173568 -14,16.0625 V 14 Z m 0.5,3.5 c 0.552,0 1,0.448 1,1 0,0.552 -0.448,1 -1,1 -0.552,0 -1,-0.448 -1,-1 0,-0.552 0.448,-1 1,-1 z"
           id="path10-5" />
        <path
           d="m -19,19 9,-0.0096 c 0,0 0,0 0,-2 C -10,14 -11,14 -14.5,14 -18,14 -19,14 -19,17 Z"
           fill-rule="evenodd"
           opacity="0.3"
           id="path12-9" />
      </g>
    </g>
  </g>
</svg>
