<?xml version="1.0" encoding="UTF-8" standalone="no"?>
<svg
   height="24"
   width="24"
   version="1.1"
   id="svg8"
   sodipodi:docname="mActionLink.svg"
   inkscape:version="1.1.1 (3bf5ae0d25, 2021-09-20)"
   xmlns:inkscape="http://www.inkscape.org/namespaces/inkscape"
   xmlns:sodipodi="http://sodipodi.sourceforge.net/DTD/sodipodi-0.dtd"
   xmlns="http://www.w3.org/2000/svg"
   xmlns:svg="http://www.w3.org/2000/svg">
  <defs
     id="defs12" />
  <sodipodi:namedview
     id="namedview10"
     pagecolor="#ffffff"
     bordercolor="#666666"
     borderopacity="1.0"
     inkscape:pageshadow="2"
     inkscape:pageopacity="0.0"
     inkscape:pagecheckerboard="0"
     showgrid="false"
     inkscape:zoom="26.25"
     inkscape:cx="8.4190476"
     inkscape:cy="12.361905"
     inkscape:window-width="1555"
     inkscape:window-height="1344"
     inkscape:window-x="1280"
     inkscape:window-y="0"
     inkscape:window-maximized="0"
     inkscape:current-layer="svg8" />
  <g
     fill="none"
     stroke="#c4a000"
     stroke-linecap="round"
     stroke-linejoin="round"
     id="g6">
    <rect
       height="4.098249"
       rx="2.642857"
       ry="2.049125"
       width="10.839286"
       x="2.437501"
       y="9.75"
       id="rect2" />
    <rect
       height="4.098249"
       rx="2.642857"
       ry="2.049125"
       width="10.839286"
       x="10.964286"
       y="9.7723"
       id="rect4" />
  </g>
  <g
     transform="translate(33)"
     id="g16">
    <rect
       fill="#c4a000"
       height="11"
       rx="2.0114901"
       width="11"
       x="-20"
       y="13"
       id="rect8" />
    <g
       fill="#fcffff"
       id="g14">
      <path
         d="m -15,14 v 2.0625 c -0.537663,0.111041 -1.024662,0.383291 -1.375,0.78125 l -1.78125,-1.03125 -0.5,0.875 1.78125,1.03125 C -16.957063,17.966182 -17,18.225145 -17,18.5 c 0,0.274855 0.04294,0.533818 0.125,0.78125 l -1.78125,1.03125 0.5,0.875 1.78125,-1.03125 c 0.352503,0.40042 0.832682,0.670182 1.375,0.78125 V 23 h 1 v -2.0625 c 0.537663,-0.111041 1.024662,-0.383291 1.375,-0.78125 l 1.78125,1.03125 0.5,-0.875 -1.78125,-1.03125 C -12.042937,19.033818 -12,18.774855 -12,18.5 c 0,-0.274855 -0.04294,-0.533818 -0.125,-0.78125 l 1.78125,-1.03125 -0.5,-0.875 -1.78125,1.03125 C -12.977503,16.44333 -13.457682,16.173568 -14,16.0625 V 14 Z m 0.5,3.5 c 0.552,0 1,0.448 1,1 0,0.552 -0.448,1 -1,1 -0.552,0 -1,-0.448 -1,-1 0,-0.552 0.448,-1 1,-1 z"
         id="path10" />
      <path
         d="m -19,19 9,-0.0096 c 0,0 0,0 0,-2 C -10,14 -11,14 -14.5,14 -18,14 -19,14 -19,17 Z"
         fill-rule="evenodd"
         opacity="0.3"
         id="path12" />
    </g>
  </g>
</svg>
